<?xml version="1.0" encoding="iso-8859-1"?>
<!-- Generator: Adobe Illustrator 19.0.0, SVG Export Plug-In . SVG Version: 6.00 Build 0)  -->
<svg version="1.1" id="Capa_1" xmlns="http://www.w3.org/2000/svg" xmlns:xlink="http://www.w3.org/1999/xlink" x="0px" y="0px"
	 viewBox="0 0 215.038 215.038" style="enable-background:new 0 0 215.038 215.038;" xml:space="preserve">
<polygon style="fill:#F9AC54;" points="194.56,174.079 149.497,184.319 69.086,184.319 20.48,174.079 20.48,58.026 194.56,58.026 
	"/>
<path d="M149.497,187.732H69.086c-0.237,0-0.473-0.024-0.703-0.073l-48.606-10.24c-1.58-0.333-2.71-1.727-2.71-3.34V58.026
	c0-1.886,1.527-3.413,3.413-3.413h174.08c1.886,0,3.413,1.527,3.413,3.413v116.053c0,1.594-1.103,2.976-2.657,3.33l-45.063,10.24
	C150.004,187.702,149.75,187.732,149.497,187.732z M69.443,180.906h79.671l42.033-9.55V61.439H23.893v109.87L69.443,180.906z
	 M194.56,174.079h0.034H194.56z"/>
<path d="M77.664,133.802h-16.3v-29.24h16.3v3.021H64.763v9.421h12.121v3H64.763v10.761h12.901V133.802z"/>
<path d="M93.643,111.482c0.973,0,1.847,0.08,2.62,0.241l-0.461,3.081c-0.906-0.2-1.707-0.3-2.4-0.3c-1.773,0-3.29,0.72-4.55,2.161
	c-1.26,1.44-1.889,3.234-1.889,5.379v11.761h-3.319v-21.92h2.739l0.381,4.06h0.16c0.814-1.427,1.794-2.526,2.941-3.301
	C91.011,111.868,92.269,111.482,93.643,111.482z"/>
<path d="M110.363,111.482c0.973,0,1.847,0.08,2.62,0.241l-0.461,3.081c-0.906-0.2-1.707-0.3-2.4-0.3c-1.773,0-3.29,0.72-4.55,2.161
	s-1.889,3.234-1.889,5.379v11.761h-3.319v-21.92h2.739l0.381,4.06h0.16c0.814-1.427,1.794-2.526,2.941-3.301
	C107.732,111.868,108.989,111.482,110.363,111.482z"/>
<path d="M136.003,122.823c0,3.574-0.899,6.364-2.7,8.37c-1.801,2.005-4.287,3.011-7.46,3.011c-1.959,0-3.7-0.461-5.221-1.381
	c-1.521-0.92-2.693-2.239-3.519-3.959c-0.826-1.72-1.241-3.734-1.241-6.04c0-3.574,0.893-6.357,2.679-8.351
	c1.787-1.993,4.267-2.99,7.439-2.99c3.067,0,5.504,1.021,7.31,3.06C135.096,116.582,136.003,119.343,136.003,122.823z
	 M119.303,122.823c0,2.801,0.56,4.934,1.679,6.4c1.12,1.466,2.767,2.2,4.941,2.2s3.823-0.73,4.949-2.19
	c1.126-1.459,1.69-3.596,1.69-6.41c0-2.787-0.563-4.903-1.69-6.35c-1.126-1.447-2.79-2.169-4.99-2.169
	c-2.173,0-3.813,0.713-4.92,2.14C119.854,117.87,119.303,119.997,119.303,122.823z"/>
<path d="M151.823,111.482c0.973,0,1.847,0.08,2.62,0.241l-0.461,3.081c-0.906-0.2-1.707-0.3-2.4-0.3c-1.773,0-3.29,0.72-4.55,2.161
	c-1.26,1.44-1.889,3.234-1.889,5.379v11.761h-3.319v-21.92h2.739l0.381,4.06h0.16c0.814-1.427,1.794-2.526,2.941-3.301
	C149.192,111.868,150.45,111.482,151.823,111.482z"/>
<circle style="fill:#EC5582;" cx="170.667" cy="54.612" r="34.133"/>
<path d="M170.667,92.159c-20.704,0-37.547-16.843-37.547-37.547s16.843-37.547,37.547-37.547s37.547,16.843,37.547,37.547
	S191.37,92.159,170.667,92.159z M170.667,23.892c-16.94,0-30.72,13.78-30.72,30.72s13.78,30.72,30.72,30.72s30.72-13.78,30.72-30.72
	S187.607,23.892,170.667,23.892z"/>
<path d="M170.667,64.852c-1.886,0-3.413-1.527-3.413-3.413V34.132c0-1.886,1.527-3.413,3.413-3.413s3.413,1.527,3.413,3.413v27.307
	C174.08,63.325,172.553,64.852,170.667,64.852z"/>
<path d="M170.667,78.506c-1.886,0-3.413-1.527-3.413-3.413v-3.413c0-1.886,1.527-3.413,3.413-3.413s3.413,1.527,3.413,3.413v3.413
	C174.08,76.978,172.553,78.506,170.667,78.506z"/>
<path style="fill:#DDDDDD;" d="M136.533,174.079l-3.413,6.827h-51.2l-3.413-6.827H3.413c0,11.31,9.17,20.48,20.48,20.48h167.253
	c11.31,0,20.48-9.17,20.48-20.48H136.533z"/>
<path d="M191.147,197.972H23.893C10.72,197.972,0,187.253,0,174.079c0-1.886,1.527-3.413,3.413-3.413h75.093
	c1.294,0,2.473,0.73,3.053,1.886l2.47,4.941h46.979l2.47-4.941c0.58-1.157,1.76-1.886,3.053-1.886h75.093
	c1.886,0,3.413,1.527,3.413,3.413C215.04,187.253,204.32,197.972,191.147,197.972z M7.17,177.492
	c1.587,7.781,8.48,13.653,16.724,13.653h167.253c8.243,0,15.136-5.873,16.724-13.653h-69.226l-2.47,4.941
	c-0.58,1.157-1.76,1.886-3.053,1.886h-51.2c-1.294,0-2.473-0.73-3.053-1.886l-2.471-4.941H7.17z"/>
<g>
</g>
<g>
</g>
<g>
</g>
<g>
</g>
<g>
</g>
<g>
</g>
<g>
</g>
<g>
</g>
<g>
</g>
<g>
</g>
<g>
</g>
<g>
</g>
<g>
</g>
<g>
</g>
<g>
</g>
</svg>
