<?xml version="1.0" encoding="iso-8859-1"?>
<!-- Generator: Adobe Illustrator 19.0.0, SVG Export Plug-In . SVG Version: 6.00 Build 0)  -->
<svg xmlns="http://www.w3.org/2000/svg" xmlns:xlink="http://www.w3.org/1999/xlink" version="1.1" id="Layer_1" x="0px" y="0px" viewBox="0 0 512 512" style="enable-background:new 0 0 512 512;" xml:space="preserve" width="512" height="512">
<g>
	<path style="fill:#343642;" d="M402.372,188.48L369.105,57.981V57.98c-4.262-16.717-19.287-28.392-36.539-28.392   c-0.785,0-1.568,0.062-2.343,0.184l-74.35,11.758l-74.09-11.756c-0.777-0.124-1.563-0.186-2.351-0.186   c-17.251,0-32.276,11.675-36.539,28.393L109.628,188.48c-1.144,4.487-0.151,9.252,2.691,12.909   c2.841,3.656,7.213,5.796,11.844,5.796h263.674c4.631,0,9.003-2.14,11.844-5.796C402.523,197.732,403.516,192.968,402.372,188.48z"/>
	<g>
		<path style="fill:#343642;" d="M235.105,305.44c-2.789-7.8-11.374-11.862-19.175-9.073L93.532,340.136    c-7.8,2.789-11.863,11.374-9.073,19.175c2.192,6.132,7.966,9.953,14.125,9.953c1.676,0,3.381-0.283,5.05-0.88l122.398-43.769    C233.832,321.826,237.895,313.241,235.105,305.44z"/>
		<path style="fill:#18191F;" d="M418.468,340.136L296.07,296.367c-7.801-2.788-16.385,1.272-19.175,9.073    s1.273,16.386,9.073,19.175l122.398,43.769c1.669,0.597,3.374,0.88,5.05,0.88c6.158,0,11.932-3.822,14.125-9.953    C430.331,351.51,426.269,342.925,418.468,340.136z"/>
		<path style="fill:#18191F;" d="M272.402,339.993h-33.065c-8.284,0-15,6.716-15,15s6.716,15,15,15h33.065c8.284,0,15-6.716,15-15    S280.687,339.993,272.402,339.993z"/>
	</g>
	<g>
		<path style="fill:#343642;" d="M237.725,339.993H99.553c-17.581,0-31.884,14.303-31.884,31.884v55.438    c0,30.381,24.717,55.097,55.098,55.097h22.834c29.708,0,55.289-7.2,73.977-20.822c21.685-15.807,33.147-39.397,33.147-68.224    v-38.372C252.725,346.709,246.009,339.993,237.725,339.993z"/>
		<path style="fill:#18191F;" d="M412.447,339.993H274.275c-8.284,0-15,6.716-15,15v38.372c0,28.826,11.462,52.417,33.147,68.224    c18.688,13.622,44.269,20.822,73.977,20.822h22.834c30.381,0,55.098-24.716,55.098-55.097v-55.438    C444.332,354.296,430.028,339.993,412.447,339.993z"/>
	</g>
	<path style="fill:#18191F;" d="M402.372,188.48L369.105,57.981V57.98c-4.262-16.717-19.287-28.392-36.539-28.392   c-0.785,0-1.568,0.062-2.343,0.184l-74.35,11.758L256,207.186h131.837c4.631,0,9.003-2.14,11.844-5.796   C402.523,197.732,403.516,192.968,402.372,188.48z"/>
	<path style="fill:#FFBD59;" d="M466.389,178.058H45.611C20.461,178.058,0,198.519,0,223.669v0.69   c0,25.15,20.461,45.611,45.611,45.611h420.777c25.15,0,45.611-20.461,45.611-45.611v-0.69   C512,198.519,491.539,178.058,466.389,178.058z"/>
	<path style="fill:#FF8036;" d="M466.389,178.058H255.87v91.913h210.519c25.15,0,45.611-20.461,45.611-45.611v-0.69   C512,198.519,491.539,178.058,466.389,178.058z"/>
	<g>
		<path style="fill:#FFBD59;" d="M369.105,57.981L369.105,57.981c-4.262-16.718-19.287-28.393-36.539-28.393    c-0.785,0-1.568,0.062-2.343,0.184l-74.35,11.758l-74.09-11.756c-0.777-0.124-1.563-0.186-2.351-0.186    c-17.251,0-32.276,11.675-36.539,28.393l-15.769,61.858h257.748L369.105,57.981z"/>
	</g>
	<g>
		<path style="fill:#FF8036;" d="M256,119.839h128.874l-15.769-61.858V57.98c-4.262-16.717-19.287-28.392-36.539-28.392    c-0.785,0-1.568,0.062-2.343,0.184l-74.35,11.758L256,119.839z"/>
	</g>
</g>















</svg>
