<?xml version="1.0" encoding="iso-8859-1"?>
<!-- Generator: Adobe Illustrator 19.0.0, SVG Export Plug-In . SVG Version: 6.00 Build 0)  -->
<svg version="1.1" id="Capa_1" xmlns="http://www.w3.org/2000/svg" xmlns:xlink="http://www.w3.org/1999/xlink" x="0px" y="0px"
	 viewBox="0 0 512.001 512.001" style="enable-background:new 0 0 512.001 512.001;" xml:space="preserve">
<path style="fill:#70BBEF;" d="M432.665,478.041c-23.218-114.951-21.386-111.104-24.535-118.599
	c-8.896-21.169-30.318-24.832-30.658-25.059c-6.663-1.965-52.436-15.467-58.738-17.326l0,0l-16.121,45.176
	c-1.714,4.805-7.584,6.588-11.681,3.549l-36.405-13.22v-0.001l0,0v0.001v-0.107v0.107l-33.348,13.22
	c-4.098,3.039-9.967,1.255-11.682-3.549l-16.121-45.176l0.133-0.09c-6.436,1.898-52.417,15.462-59.045,17.416l0,0
	c-1.977,0.583-5.88,1.735-5.631,1.662c-14.095,5.257-24.522,16.29-27.702,32.221l-21.86,109.775
	c-1.105,7.806-1.222,26.461,22.985,26.461c35.818,0,267.632,0,307.425,0C433.889,504.501,433.772,485.847,432.665,478.041z"/>
<path style="fill:#4CAEE5;" d="M104.277,478.041c23.173-120.634,19.717-122.975,28.427-135.787
	c2.822-4.157,6.228-7.528,10.134-10.341l-8.374,2.471l0,0c-1.977,0.583-5.88,1.735-5.631,1.662
	c-14.098,5.258-24.523,16.296-27.702,32.221l-21.86,109.774c-1.105,7.806-1.222,26.461,22.985,26.461h25.006
	C103.055,504.501,103.172,485.847,104.277,478.041z"/>
<path style="fill:#DADADA;" d="M294.749,300.836l-40.223,51.725l36.405,13.22c4.098,3.039,9.967,1.256,11.681-3.549l16.121-45.176
	L294.749,300.836z"/>
<polygon style="fill:#CECCCA;" points="309.212,310.616 294.749,300.836 254.526,352.561 275.52,360.185 "/>
<path style="fill:#DADADA;" d="M217.359,300.836l37.167,51.725l-33.349,13.22c-4.098,3.039-9.967,1.256-11.681-3.549l-16.121-45.176
	L217.359,300.836z"/>
<polygon style="fill:#CECCCA;" points="234.538,360.485 254.526,352.561 217.359,300.836 204.437,309.574 "/>
<path style="fill:#4C4846;" d="M266.214,7.955c-67.973-5.937-124.953,47.744-124.953,114.378v31.312h229.654v-31.312
	C370.915,62.987,325.572,13.165,266.214,7.955z"/>
<path style="fill:#3F3B39;" d="M166.196,100.728c9.423-49.235,50.242-87.58,101.341-92.651
	C199.066,1.292,141.26,55.238,141.26,122.332v31.312h22.897C164.243,122.673,163.489,114.951,166.196,100.728z"/>
<g>
	<path style="fill:#DD9A5E;" d="M375.629,164.181c0,13.234-12.81,23.96-28.611,23.96v-47.917
		C362.819,140.223,375.629,150.949,375.629,164.181z"/>
	<path style="fill:#DD9A5E;" d="M136.546,164.181c0,13.234,12.81,23.96,28.612,23.96v-47.917
		C149.355,140.223,136.546,150.949,136.546,164.181z"/>
</g>
<g>
	<path style="fill:#D38D54;" d="M347.018,167.136v21.005c21.337,0,34.894-18.74,25.72-34.462
		C368.089,161.646,358.319,167.136,347.018,167.136z"/>
	<path style="fill:#D38D54;" d="M139.438,153.679c-9.197,15.764,4.456,34.462,25.721,34.462v-21.005
		C153.856,167.136,144.086,161.646,139.438,153.679z"/>
</g>
<path style="fill:#DD9A5E;" d="M254.526,352.561l40.223-51.725l0,0l0,0c0-8.898,0-15.229,0-24.136c-0.09,0.042-0.18,0.08-0.27,0.121
	v-0.01c-0.006,0.003-0.014,0.007-0.021,0.01V276.7c-23.576,10.932-51.654,11.744-76.981,0v0.121h-0.001
	c-0.007-0.003-0.014-0.007-0.021-0.01v0.01l0,0c-0.089-0.041-0.179-0.079-0.268-0.121c0,8.996,0,15.223,0,24.252l0.171-0.116
	L254.526,352.561L254.526,352.561L254.526,352.561L254.526,352.561z"/>
<path style="fill:#D38D54;" d="M242.194,284.147c-8.697-1.326-16.995-3.867-24.716-7.447v0.121h-0.001
	c-0.007-0.003-0.014-0.007-0.021-0.01v0.01l0,0c-0.089-0.041-0.179-0.079-0.268-0.121c0,8.996,0,15.223,0,24.252l0.171-0.116
	l24.835,34.563L242.194,284.147L242.194,284.147z"/>
<path style="fill:#EDAE6B;" d="M326.81,106.371c-0.185-7.312-6.559-13.839-15.82-12.414c-37.54,5.769-73.46,5.633-110.458-0.1
	c-7.219-1.124-14.86,3.808-15.19,13.078c-0.429,11.899-4.899,22.472-14.094,29.563c-3.949,3.048-6.99,4.083-7.09,4.141
	c0,60.392-0.056,56.734,0.13,60.393c5.36,106.651,163.429,120.601,182.377,11.126c1.757-10.129,1.355-11.088,1.355-71.519
	C347.41,140.206,327.479,133.075,326.81,106.371z"/>
<path style="fill:#DD9A5E;" d="M189.251,204.979c-0.172-4.262-0.037-6.684-0.087-53.253c0-6.511,2.673-9.907,4.453-11.452
	c1.17-0.916,5.267-3.29,9.409-9.175c11.821-16.79,2.782-27.998,13.241-35.147c-4.853-0.536-10.237-1.244-15.736-2.097
	c-7.264-1.131-14.871,3.861-15.19,13.078c-0.339,9.319-3.129,17.995-9.136,24.886c-1.412,1.622-3.086,3.232-4.958,4.676
	c-3.949,3.048-6.99,4.084-7.09,4.141c0,61.192-0.055,56.803,0.13,60.393c2.145,42.604,33.303,78.403,76.487,85.94
	C209.997,271.189,190.699,239.671,189.251,204.979z"/>
<path d="M420.141,415.138c-4.064,0.809-6.701,4.759-5.892,8.822l11.016,55.325c0.388,2.887,0.82,9.549-2.612,13.501
	c-5.855,6.745-18.444,3.266-50.592,4.211v-70.707c0-4.144-3.358-7.502-7.502-7.502c-4.144,0-7.502,3.358-7.502,7.502v70.707h-139.87
	c-4.144,0-7.502,3.358-7.502,7.502c0,4.144,3.358,7.502,7.502,7.502h192.493c10.722,0,18.897-3.155,24.3-9.377
	c6.166-7.101,7.634-18.091,6.042-26.051l-11.06-55.543C428.154,416.966,424.204,414.326,420.141,415.138z"/>
<path d="M102.256,512h79.922c4.144,0,7.502-3.358,7.502-7.502c0-4.144-3.358-7.502-7.502-7.502h-27.03V426.29
	c0-4.144-3.358-7.502-7.502-7.502s-7.502,3.358-7.502,7.502v70.707h-37.889c-12.145,0-17.248-5.321-15.584-17.712
	c23.733-115.397,20.454-115.991,30.253-126.626c3.9-4.237,8.911-7.452,14.293-9.5c65.634-19.36,56.241-16.589,57.459-16.948
	c14.461,40.211,13.487,38.504,14.902,40.983c3.882,6.806,12.771,10.087,21.127,5.256c2.042-0.809,19.722-7.818,22.319-8.848v62.688
	c0,4.144,3.358,7.502,7.502,7.502s7.502-3.358,7.502-7.502v-63.026c32.52,11.816,23.244,8.314,27.071,10.108
	c7.853,3.679,17.528-0.068,20.579-8.621l13.738-38.495c66.16,19.515,49.114,14.568,51.979,15.332
	c0.605,0.362,23.241,4.003,28.056,28.141l3.961,19.894c0.809,4.064,4.759,6.703,8.822,5.892c4.064-0.809,6.701-4.759,5.892-8.822
	c-4.002-15.007-2.599-34.459-22.016-49.668c-11.091-8.666-14.51-8.068-78.138-26.837l-19.722-13.337v-12.433
	c35.98-19.522,53.272-54.135,53.272-88.08v-1.385c24.561-4.541,36.554-29.259,22.866-47.763c0.008-0.112,0.402-27.806-0.841-39.445
	C364.975,1.755,231.73-37.075,164.08,41.735c-2.73,3.116-2.419,7.856,0.697,10.586c3.117,2.73,7.856,2.418,10.587-0.697
	c55.759-64.433,161.823-39.069,184.193,42.12l0.122,0.45c5.055,18.674,3.408,31.668,3.732,41.534
	c-4.443-1.831-9.38-2.891-14.586-2.991c-5.379-2.945-9.954-8.042-12.403-14.762c-1.257-3.697-1.737-5.583-2.114-11.797
	c-0.149-5.867-2.83-11.397-7.355-15.173c-15.656-13.063-29.071,6.957-113.963-2.991l-11.306-1.572
	c-12.204-1.899-23.497,7.261-23.821,19.804c-0.173,3.623-0.377,5.834-1.491,9.862c-2.463,8.244-7.337,12.404-6.993,12.046
	c-1.914,1.928-4.017,3.486-6.029,4.583c-5.207,0.1-10.147,1.159-14.591,2.992c0.033-21.908,0.121-36.208,8.998-56.447
	c1.663-3.794-0.063-8.219-3.858-9.883c-3.794-1.663-8.218,0.063-9.883,3.858c-6.037,13.768-9.481,28.477-10.141,43.801
	c0,0.101-0.239,28.112-0.092,30.133c-13.737,18.57-1.628,43.236,22.87,47.763c0.465,65.519,52.067,88.467,52.832,89.227
	c0.065,0.036,0.132,0.071,0.197,0.107v12.679l-19.418,13.131c-58.292,17.194-63.369,18.659-64.059,18.916
	c-16.327,6.088-28.706,19.09-32.437,37.785C70.928,481.532,71.896,476.598,71.841,476.985C68.971,497.262,79.681,512,102.256,512z
	 M215.521,311.131l27.302,37.996c-25.766,10.316-24.686,9.564-26.148,10.647c-0.214-0.02,0.51,1.48-14.282-39.766L215.521,311.131z
	 M255.362,295.757v-0.065c0.045,0,0.09,0.003,0.136,0.003l0.001,0.063c13.923-0.239,21.994-1.787,31.748-4.99v7.49l-32.484,41.773
	l-30.074-41.853v-7.492C241.079,296.106,254.448,295.673,255.362,295.757z M295.532,359.745c-0.169,0.152-0.443-0.437-2.041-1.018
	c-2.054-0.746-23.554-8.553-26.714-9.701l29.586-38.046l13.35,9.028L295.532,359.745z M355.523,179.562v-30.765
	C373.629,154.183,373.618,174.179,355.523,179.562z M156.656,148.796v30.767C138.548,174.179,138.551,154.178,156.656,148.796z
	 M177.553,227.395c-7.629-19.248-5.893-29.486-5.893-82.125c11.925-7.032,20.733-20.382,21.209-38.711
	c0.085-3.38,3.228-5.806,6.502-5.293l2.304,0.35c7.139,0.343,44.067,9.089,111.128-0.349c1.621-0.251,3.279,0.206,4.54,1.257
	c1.831,1.529,1.912,3.217,1.998,4.673c0.478,13.286,5.379,25.264,15.197,33.759l-0.054-0.046c1.387,1.251,3.826,3.063,6.033,4.358
	c0,0.254,0.003,50.142,0.003,51.07c0,60.522-63.613,104.635-123.193,75.023l0.027,0.013c-0.031-0.016-0.084-0.042-0.133-0.065
	c-0.001-0.001-0.001-0.001-0.002-0.001C199.732,262.223,185.219,246.811,177.553,227.395z"/>
<g>
</g>
<g>
</g>
<g>
</g>
<g>
</g>
<g>
</g>
<g>
</g>
<g>
</g>
<g>
</g>
<g>
</g>
<g>
</g>
<g>
</g>
<g>
</g>
<g>
</g>
<g>
</g>
<g>
</g>
</svg>
