<svg height="503pt" viewBox="-7 0 503 503.62701" width="503pt" xmlns="http://www.w3.org/2000/svg"><path d="m289 338.503906 27.683594-4.488281c1.914062-.3125 3.878906 0 5.597656.898437l163.320312 85.546876c3.375 1.769531 5.265626 5.476562 4.714844 9.25-.546875 3.773437-3.417968 6.789062-7.160156 7.519531l-339.203125 66.230469c-2.527344.492187-5.140625-.117188-7.1875-1.683594l-132.921875-101.652344c-2.851562-2.179688-4.132812-5.847656-3.257812-9.328125s3.738281-6.109375 7.28125-6.679687l144.78125-23.425782zm0 0" fill="#7d6599"/><path d="m281.097656 376.230469 29.460938-4.8125c1.921875-.320313 3.894531-.003907 5.625.898437l62.085937 32.542969c3.375 1.769531 5.265625 5.480469 4.714844 9.253906-.550781 3.773438-3.425781 6.785157-7.167969 7.515625l-222.890625 43.476563c-2.523437.492187-5.140625-.117188-7.1875-1.679688l-53.894531-41.214843c-2.84375-2.175782-4.121094-5.839844-3.25-9.316407.871094-3.476562 3.730469-6.101562 7.265625-6.679687l73.925781-12.019532zm0 0" fill="#3d324c"/><path d="m14.226562 243.742188c1.25-1.097657 14.300782 5.648437 15.648438 6.242187 13.253906 5.828125 26.085938 12.578125 38.390625 20.210937 31.863281 19.5 58.582031 46.359376 77.914063 78.324219 15.730468 26.195313 27.640624 74.871094 65.664062 74.871094 18.214844 0 38.917969.589844 52.761719-13.304687 16.921875-17.003907 17.226562-41.820313 22.457031-63.773438 25.917969-103.535156 75.414062-199.675781 144.617188-280.929688 4.25-5.082031 8.566406-10.113281 12.941406-15.089843 8.886718-9.988281 18.316406-19.480469 28.242187-28.4375 1.347657-1.222657 3.683594-3.726563 6.46875-6.585938 2.550781-2.601562 3.277344-6.488281 1.835938-9.835937-1.4375-3.347656-4.757813-5.496094-8.402344-5.433594-57.191406 1.816406-193.269531 31.753906-269.90625 261.707031 0 0-116.773437-80.84375-188.632813-17.964843zm0 0" fill="#4fba6f"/><g fill="#71c285"><path d="m301.667969 162.898438c-1.523438 0-3.019531-.386719-4.347657-1.132813-4.335937-2.40625-5.898437-7.871094-3.496093-12.207031 45.730469-82.324219 100.363281-110.320313 102.632812-111.472656 4.4375-2.230469 9.839844-.445313 12.074219 3.988281 2.230469 4.4375.445312 9.839843-3.988281 12.074219-.683594.347656-52.222657 27.152343-94.988281 104.125-1.589844 2.863281-4.613282 4.636718-7.886719 4.625zm0 0"/><path d="m274.71875 207.808594c-3.113281 0-6-1.613282-7.636719-4.257813-1.636719-2.648437-1.785156-5.953125-.394531-8.738281l8.984375-17.964844c1.433594-2.871094 4.292969-4.757812 7.496094-4.949218 3.207031-.191407 6.269531 1.339843 8.035156 4.019531 1.769531 2.679687 1.972656 6.097656.539063 8.96875l-8.984376 17.964843c-1.523437 3.042969-4.636718 4.960938-8.039062 4.957032zm0 0"/></g></svg>