<svg height="512pt" viewBox="0 -85 512 512" width="512pt" xmlns="http://www.w3.org/2000/svg"><path d="m458.667969 106.667969c-16.023438 0-25.386719 6.078125-34.371094 11.964843-3.496094 2.21875-7.699219 2.328126-11.261719.195313-3.5625-2.15625-5.503906-5.890625-5.164062-10.050781l8.109375-97.214844c.253906-2.988281-.769531-5.910156-2.773438-8.128906-2.050781-2.175782-4.886719-3.433594-7.875-3.433594h-95.722656c-7.828125 0-14.996094 4.265625-18.75 11.136719-3.710937 6.824219-3.433594 15.125.765625 21.652343 4.269531 6.613282 7.042969 11.605469 7.042969 20.542969 0 17.644531-19.136719 32-42.667969 32s-42.667969-14.355469-42.667969-32c0-8.9375 2.773438-13.929687 7.019531-20.542969 4.203126-6.527343 4.5-14.804687.789063-21.652343-3.753906-6.871094-10.921875-11.136719-18.75-11.136719h-95.722656c-2.988281 0-5.824219 1.257812-7.851563 3.433594-2.003906 2.21875-3.03125 5.140625-2.773437 8.128906l8.105469 97.195312c.34375 4.160157-1.597657 7.914063-5.160157 10.046876-3.585937 2.132812-7.808593 2.046874-12.011719-.683594-8.257812-5.375-17.621093-11.453125-33.644531-11.453125-29.394531 0-53.332031 28.714843-53.332031 64 0 35.285156 23.9375 64 53.332031 64 16.023438 0 25.386719-6.082031 34.371094-11.96875 3.496094-2.21875 7.699219-2.324219 11.261719-.191407 3.5625 2.152344 5.503906 5.886719 5.164062 10.046876l-8.109375 97.214843c-.253906 2.988281.769531 5.910157 2.773438 8.128907 2.050781 2.175781 4.886719 3.433593 7.875 3.433593h95.722656c7.828125 0 14.996094-4.265625 18.75-11.132812 3.710937-6.828125 3.433594-15.128907-.765625-21.65625-4.269531-6.613281-7.042969-11.605469-7.042969-20.542969 0-17.644531 19.136719-32 42.667969-32s42.667969 14.355469 42.667969 32c0 8.9375-2.773438 13.929688-7.019531 20.542969-4.203126 6.527343-4.5 14.804687-.789063 21.65625 3.753906 6.867187 10.921875 11.132812 18.75 11.132812h95.722656c2.988281 0 5.824219-1.257812 7.851563-3.433593 2.003906-2.21875 3.03125-5.140626 2.773437-8.128907l-8.105469-97.195312c-.34375-4.160157 1.597657-7.914063 5.160157-10.066407 3.5625-2.15625 7.789062-2.070312 12.011719.679688 8.257812 5.398438 17.621093 11.480469 33.644531 11.480469 29.394531 0 53.332031-28.714844 53.332031-64 0-35.285157-23.9375-64-53.332031-64zm0 0" fill="#ffc107"/><path d="m405.332031 341.332031h-95.722656c-7.828125 0-14.996094-4.265625-18.75-11.132812-3.710937-6.828125-3.433594-15.128907.789063-21.675781 4.246093-6.59375 7.019531-11.585938 7.019531-20.523438 0-17.644531-19.136719-32-42.667969-32s-42.667969 14.355469-42.667969 32c0 8.9375 2.773438 13.929688 7.042969 20.542969 4.199219 6.507812 4.476562 14.804687.765625 21.65625-3.753906 6.867187-10.921875 11.132812-18.75 11.132812h-95.722656c-2.988281 0-5.824219-1.257812-7.851563-3.453125-2.003906-2.199218-3.03125-5.144531-2.773437-8.109375l8.105469-97.214843c.34375-4.140626-1.597657-7.914063-5.160157-10.046876-3.5625-2.132812-7.789062-2.070312-11.265625.191407-9.003906 5.867187-18.367187 11.96875-34.390625 11.96875-29.394531 0-53.332031-28.714844-53.332031-64 0-35.285157 23.9375-64 53.332031-64 16.023438 0 25.386719 6.101562 33.644531 11.453125 4.203126 2.730468 8.40625 2.816406 12.011719.683594 3.5625-2.132813 5.503907-5.886719 5.160157-10.046876l-8.105469-97.214843c-.257813-2.96875.769531-5.910157 2.773437-8.109375 2.027344-2.175782 4.863282-3.433594 7.851563-3.433594h95.722656c7.828125 0 14.996094 4.265625 18.75 11.136719 3.710937 6.824219 3.433594 15.125-.789063 21.675781-4.246093 6.589844-7.019531 11.582031-7.019531 20.519531 0 17.644531 19.136719 32 42.667969 32s42.667969-14.355469 42.667969-32c0-8.9375-2.773438-13.929687-7.042969-20.542969-4.199219-6.507812-4.476562-14.804687-.765625-21.652343 3.753906-6.871094 10.921875-11.136719 18.75-11.136719h95.722656c2.988281 0 5.824219 1.257812 7.851563 3.457031 2.003906 2.195313 3.03125 5.140625 2.773437 8.105469l-8.105469 97.214844c-.34375 4.140625 1.597657 7.914062 5.160157 10.050781 3.5625 2.109375 7.789062 2.066406 11.265625-.195313 9.003906-5.863281 18.367187-11.964843 34.390625-11.964843 29.394531 0 53.332031 28.714843 53.332031 64 0 35.285156-23.9375 64-53.332031 64-16.023438 0-25.386719-6.101563-33.644531-11.457031-4.246094-2.753907-8.449219-2.835938-12.011719-.683594-3.5625 2.132812-5.503907 5.886718-5.160157 10.046875l8.105469 97.21875c.257813 2.964843-.769531 5.910156-2.773437 8.105469-2.027344 2.175781-4.863282 3.433593-7.851563 3.433593zm-149.332031-106.664062c35.285156 0 64 23.933593 64 53.332031 0 14.65625-5.140625 23.871094-10.410156 32.0625l84.160156-.0625-7.125-85.675781c-1.023438-12.265625 4.90625-23.808594 15.464844-30.121094 10.519531-6.316406 23.511718-6.101563 33.8125.617187 7.917968 5.164063 13.058594 8.511719 22.765625 8.511719 17.640625 0 32-19.132812 32-42.664062s-14.359375-42.667969-32-42.667969c-9.707031 0-14.847657 3.347656-21.996094 8-11.113281 7.167969-24.0625 7.425781-34.601563 1.128906-10.5625-6.3125-16.492187-17.855468-15.46875-30.121094l7.148438-85.675781h-84.117188c5.226563 8.128907 10.367188 17.34375 10.367188 32 0 29.398438-28.714844 53.335938-64 53.335938s-64-23.9375-64-53.335938c0-14.65625 5.140625-23.871093 10.410156-32.0625l-84.160156.0625 7.125 85.675781c1.023438 12.265626-4.90625 23.808594-15.464844 30.121094-10.5625 6.296875-23.511718 6.082032-33.8125-.617187-7.917968-5.164063-13.058594-8.511719-22.765625-8.511719-17.640625 0-32 19.136719-32 42.667969s14.359375 42.664062 32 42.664062c9.707031 0 14.847657-3.347656 21.996094-8 11.09375-7.210937 24.019531-7.464843 34.601563-1.128906 10.5625 6.3125 16.492187 17.855469 15.46875 30.121094l-7.148438 85.675781h84.117188c-5.226563-8.128906-10.367188-17.34375-10.367188-32 0-29.398438 28.714844-53.332031 64-53.332031zm0 0"/></svg>