<svg viewBox="0 0 512 512" xmlns="http://www.w3.org/2000/svg"><path d="m159.683594 218.492188-39.429688.265624c-23.210937 8.265626-39.832031 30.425782-39.832031 56.472657v49.953125h119.882813v-49.953125c0-26.339844-17-48.699219-40.621094-56.738281zm0 0" fill="#40a2e7"/><path d="m417.078125 424.289062h37.992187c6.699219-5.496093 10.972657-13.839843 10.972657-23.179687v-14.988281c0-16.550782-13.414063-29.96875-29.96875-29.96875-16.554688 0-29.972657 13.417968-29.972657 29.96875v14.988281c0 9.339844 4.277344 17.683594 10.976563 23.179687zm0 0" fill="#ecce93"/><path d="m297.195312 424.289062h37.992188c6.699219-5.496093 10.972656-13.839843 10.972656-23.179687v-14.988281c0-16.550782-13.417968-29.96875-29.96875-29.96875-16.554687 0-29.972656 13.417968-29.972656 29.96875v14.988281c0 9.339844 4.277344 17.683594 10.976562 23.179687zm0 0" fill="#ecce93"/><path d="m177.3125 424.289062h37.992188c6.699218-5.496093 10.972656-13.839843 10.972656-23.179687v-14.988281c0-16.550782-13.417969-29.96875-29.96875-29.96875-16.554688 0-29.972656 13.417968-29.972656 29.96875v14.988281c0 9.339844 4.277343 17.683594 10.976562 23.179687zm0 0" fill="#ecce93"/><path d="m57.429688 424.289062h37.988281c6.703125-5.496093 10.976562-13.839843 10.976562-23.179687v-14.988281c0-16.550782-13.417969-29.96875-29.96875-29.96875-16.554687 0-29.972656 13.417968-29.972656 29.96875v14.988281c0 9.339844 4.277344 17.683594 10.976563 23.179687zm0 0" fill="#ecce93"/><path d="m177.746094 228.390625c-5.351563-4.273437-11.445313-7.648437-18.0625-9.898437l-39.429688.265624c-6.316406 2.25-12.136718 5.53125-17.269531 9.632813 9.15625 10.335937 22.515625 16.871094 37.378906 16.871094s28.222657-6.535157 37.382813-16.871094zm0 0" fill="#168de2"/><path d="m140.363281 225.28125c-16.554687 0-29.972656-13.417969-29.972656-29.972656v-14.984375c0-16.554688 13.417969-29.972657 29.972656-29.972657 16.550781 0 29.96875 13.417969 29.96875 29.972657v14.984375c0 16.554687-13.417969 29.972656-29.96875 29.972656zm0 0" fill="#ecce93"/><path d="m417.078125 424.289062h37.992187c5.316407-4.363281 9.097657-10.523437 10.4375-17.550781-1.210937-.480469-2.433593-.941406-3.671874-1.363281l-3.132813-1.066406h-46.191406l-3.25 1.160156c-.902344.320312-1.789063.660156-2.671875 1.007812 1.292968 7.136719 5.105468 13.394532 10.488281 17.8125zm0 0" fill="#e5bd76"/><path d="m455.394531 424.289062h-39.429687c-23.210938 8.265626-39.832032 30.691407-39.832032 56.742188v29.96875h119.882813v-29.96875c0-26.34375-17-48.699219-40.621094-56.742188zm0 0" fill="#77959e"/><path d="m297.195312 424.289062h37.992188c5.316406-4.363281 9.097656-10.523437 10.4375-17.550781-1.210938-.480469-2.433594-.941406-3.675781-1.363281l-3.128907-1.066406h-46.191406l-3.25 1.160156c-.902344.320312-1.789062.660156-2.671875 1.007812 1.292969 7.136719 5.105469 13.394532 10.488281 17.8125zm0 0" fill="#e5bd76"/><path d="m335.511719 424.289062h-39.429688c-23.210937 8.265626-39.832031 30.691407-39.832031 56.742188v29.96875h119.882812v-29.96875c0-26.34375-17-48.699219-40.621093-56.742188zm0 0" fill="#77959e"/><path d="m177.3125 424.289062h37.992188c5.316406-4.363281 9.097656-10.523437 10.4375-17.550781-1.210938-.480469-2.433594-.941406-3.675782-1.363281l-3.128906-1.066406h-46.191406l-3.25 1.160156c-.902344.320312-1.789063.660156-2.671875 1.007812 1.292969 7.136719 5.105469 13.394532 10.488281 17.8125zm0 0" fill="#e5bd76"/><path d="m215.628906 424.289062h-39.429687c-23.210938 8.265626-39.832031 30.691407-39.832031 56.742188v29.96875h119.882812v-29.96875c0-26.34375-17-48.699219-40.621094-56.742188zm0 0" fill="#77959e"/><path d="m57.429688 424.289062h37.988281c5.320312-4.363281 9.101562-10.523437 10.441406-17.550781-1.210937-.480469-2.433594-.941406-3.675781-1.363281l-3.128906-1.066406h-46.191407l-3.25 1.160156c-.902343.320312-1.789062.660156-2.671875 1.007812 1.292969 7.136719 5.105469 13.394532 10.488282 17.8125zm0 0" fill="#e5bd76"/><path d="m95.746094 424.289062h-39.429688c-23.210937 8.265626-39.832031 30.691407-39.832031 56.742188v29.96875h119.882813v-29.96875c0-26.34375-17-48.699219-40.621094-56.742188zm0 0" fill="#77959e"/><path d="m244.761719 37.464844h239.765625v215.789062h-239.765625zm0 0" fill="#ffcb5a"/><path d="m176.328125 7.492188h-168.835937v104.898437h29.972656l39.960937 40.960937v-40.960937h98.902344zm0 0" fill="#00ddc2"/><path d="m224.78125 7.492188h279.726562v29.972656h-279.726562zm0 0" fill="#77959e"/><path d="m224.78125 253.253906h279.726562v29.96875h-279.726562zm0 0" fill="#77959e"/><path d="m413.640625 135.621094c-4.53125-22.925782-24.742187-40.214844-48.996094-40.214844v49.953125zm0 0" fill="#00ddc2"/><path d="m364.644531 145.359375v-49.953125c-27.585937 0-49.953125 22.363281-49.953125 49.953125 0 27.585937 22.367188 49.949219 49.953125 49.949219 27.585938 0 49.949219-22.363282 49.949219-49.949219 0-3.335937-.332031-6.589844-.953125-9.738281zm0 0" fill="#a477bd"/><path d="m244.761719 37.464844h239.765625v19.980468h-239.765625zm0 0" fill="#fba61f"/><path d="m100.902344 287.21875h14.984375v37.964844h-14.984375zm0 0"/><path d="m164.839844 287.21875h14.984375v37.964844h-14.984375zm0 0"/><path d="m177.828125 195.308594v-14.984375c0-20.65625-16.808594-37.464844-37.464844-37.464844s-37.464843 16.808594-37.464843 37.464844v14.984375c0 7.472656 2.210937 14.4375 5.996093 20.289062-21.839843 11.542969-35.964843 34.4375-35.964843 59.632813v49.953125h14.984374v-49.953125c0-21.195313 12.847657-40.296875 32.246094-48.398438 5.835938 3.753907 12.765625 5.941407 20.203125 5.941407 7.433594 0 14.363281-2.1875 20.195313-5.9375 19.425781 8.097656 32.253906 27.117187 32.253906 48.394531v49.953125h14.984375v-49.953125c0-25.292969-14.09375-48.113281-35.960937-59.640625 3.785156-5.847656 5.992187-12.808594 5.992187-20.28125zm-14.988281 0c0 12.394531-10.082032 22.480468-22.476563 22.480468s-22.476562-10.085937-22.476562-22.480468v-14.984375c0-12.394531 10.082031-22.476563 22.476562-22.476563s22.476563 10.082032 22.476563 22.476563zm0 0"/><path d="m467.5625 421.398438c3.859375-5.976563 5.976562-12.984376 5.976562-20.289063v-14.988281c0-20.65625-16.808593-37.460938-37.464843-37.460938s-37.464844 16.804688-37.464844 37.460938v14.988281c0 7.230469 2.070313 14.164063 5.855469 20.101563-12.292969 6.546874-22.125 16.714843-28.355469 28.886718-6.25-12.101562-16.101563-22.199218-28.429687-28.699218 3.859374-5.976563 5.976562-12.984376 5.976562-20.289063v-14.988281c0-20.65625-16.808594-37.460938-37.464844-37.460938s-37.464844 16.804688-37.464844 37.460938v14.988281c0 7.230469 2.070313 14.164063 5.855469 20.101563-12.292969 6.546874-22.125 16.714843-28.355469 28.886718-6.25-12.101562-16.101562-22.199218-28.429687-28.699218 3.859375-5.976563 5.976563-12.984376 5.976563-20.289063v-14.988281c0-20.65625-16.808594-37.460938-37.464844-37.460938s-37.464844 16.804688-37.464844 37.460938v14.988281c0 7.230469 2.070312 14.164063 5.851562 20.101563-12.289062 6.546874-22.121093 16.714843-28.351562 28.886718-6.25-12.101562-16.101562-22.199218-28.429688-28.699218 3.859376-5.976563 5.976563-12.984376 5.976563-20.289063v-14.988281c0-20.65625-16.808594-37.460938-37.464844-37.460938-20.660156 0-37.464843 16.804688-37.464843 37.460938v14.988281c0 7.230469 2.070312 14.164063 5.851562 20.101563-21.757812 11.585937-35.820312 34.539062-35.820312 59.820312v29.96875h14.984374v-29.96875c0-21.871094 13.480469-41.503906 33.679688-49.25h36.808594c20.628906 7.550781 34.410156 27.191406 34.410156 49.25v29.96875h14.984375v-29.96875c0-21.871094 13.480469-41.503906 33.679687-49.25h36.808594c20.632813 7.550781 34.410156 27.191406 34.410156 49.25v29.96875h14.984376v-29.96875c0-21.871094 13.480468-41.503906 33.679687-49.25h36.808594c20.632812 7.550781 34.410156 27.191406 34.410156 49.25v29.96875h14.984375v-29.96875c0-21.871094 13.480469-41.503906 33.679688-49.25h36.808593c20.632813 7.550781 34.410157 27.191406 34.410157 49.25v29.96875h14.984374v-29.96875c0-25.289062-14.085937-48.105469-35.945312-59.632812zm-368.660156-20.289063c0 5.914063-2.296875 11.503906-6.378906 15.6875h-32.195313c-4.082031-4.183594-6.378906-9.773437-6.378906-15.6875v-14.988281c0-12.394532 10.082031-22.476563 22.476562-22.476563s22.476563 10.082031 22.476563 22.476563zm119.882812 0c0 5.914063-2.296875 11.503906-6.378906 15.6875h-32.195312c-4.082032-4.183594-6.378907-9.773437-6.378907-15.6875v-14.988281c0-12.394532 10.082031-22.476563 22.476563-22.476563 12.394531 0 22.476562 10.082031 22.476562 22.476563zm119.882813 0c0 5.914063-2.296875 11.503906-6.378907 15.6875h-32.195312c-4.082031-4.183594-6.378906-9.773437-6.378906-15.6875v-14.988281c0-12.394532 10.082031-22.476563 22.476562-22.476563 12.394532 0 22.476563 10.082031 22.476563 22.476563zm119.882812 0c0 5.914063-2.296875 11.503906-6.378906 15.6875h-32.195313c-4.082031-4.183594-6.378906-9.773437-6.378906-15.6875v-14.988281c0-12.394532 10.082032-22.476563 22.476563-22.476563s22.476562 10.082031 22.476562 22.476563zm0 0"/><path d="m84.917969 171.761719v-51.878907h98.902343v-119.882812h-183.820312v119.882812h34.304688zm-69.933594-156.777344h153.851563v89.914063h-98.902344v30.042968l-29.3125-30.042968h-25.636719zm0 0"/><path d="m512 44.957031v-44.957031h-294.710938v44.957031h19.980469v200.804688h-19.980469v44.953125h294.710938v-44.953125h-19.980469v-200.804688zm-14.984375 215.789063v14.984375h-264.742187v-14.984375zm-244.761719-14.984375v-200.804688h224.78125v200.804688zm-19.980468-215.789063v-14.988281h264.742187v14.988281zm0 0"/><path d="m364.644531 87.914062c-31.675781 0-57.445312 25.769532-57.445312 57.445313 0 31.671875 25.769531 57.441406 57.445312 57.441406s57.441407-25.769531 57.441407-57.441406c0-31.675781-25.765626-57.445313-57.441407-57.445313zm7.492188 15.660157c14.644531 2.621093 26.703125 12.765625 32.023437 26.289062l-32.023437 6.367188zm34.964843 41.785156c0 23.410156-19.046874 42.457031-42.457031 42.457031-23.414062 0-42.460937-19.046875-42.460937-42.457031 0-20.855469 15.117187-38.234375 34.96875-41.785156v50.914062l49.929687-9.929687c.003907.269531.019531.53125.019531.800781zm0 0"/><g fill="#fff"><path d="m312.195312 74.925781h-14.984374v-14.984375h14.984374zm-29.972656 0h-14.984375v-14.984375h14.984375zm0 0"/><path d="m462.046875 230.773438h-14.984375v-14.984376h14.984375zm-29.96875 0h-14.984375v-14.984376h14.984375zm0 0"/><path d="m447.5625 59.441406h14.984375v39.960938h-14.984375zm0 0"/><path d="m417.59375 59.441406h14.984375v24.976563h-14.984375zm0 0"/><path d="m266.738281 190.3125h14.988281v39.960938h-14.988281zm0 0"/><path d="m296.710938 205.300781h14.984374v24.972657h-14.984374zm0 0"/><path d="m144.359375 48.953125h-14.984375v-14.984375h14.984375zm-29.972656 0h-14.984375v-14.984375h14.984375zm-29.96875 0h-14.984375v-14.984375h14.984375zm-29.972657 0h-14.984374v-14.984375h14.984374zm0 0"/><path d="m129.375 80.921875h-14.988281v-14.984375h14.988281zm-29.972656 0h-14.984375v-14.984375h14.984375zm-29.96875 0h-14.988282v-14.984375h14.988282zm0 0"/></g></svg>