<svg id="Layer_1" height="512" viewBox="0 0 128 128" width="512" xmlns="http://www.w3.org/2000/svg" data-name="Layer 1"><path d="m13.001 53.078 51-36.703 51 36.703z" fill="#ebebf0"/><path d="m13.001 53.078h102v58.548h-102z" fill="#d2d2d7"/><path d="m22.244 38.539h83.515v46.09h-83.515z" fill="#9bdc05"/><path d="m97.318 70.787v-18.416a5.4 5.4 0 0 1 -5.394-5.394l-55.843.008a5.4 5.4 0 0 1 -5.393 5.4v18.417a5.393 5.393 0 0 1 5.4 5.393l55.843-.008a5.4 5.4 0 0 1 5.387-5.4z" fill="#ebebf0"/><circle cx="64.001" cy="61.587" fill="#ffd92d" r="14.603"/><path d="m13.001 53.078 51 29.273 51-29.273v58.547h-102z" fill="#d2d2d7"/><path d="m13.001 111.625 40.611-35.237-40.611-23.31z" fill="#ebebf0"/><path d="m115.001 111.625-40.61-35.237 40.61-23.31z" fill="#ebebf0"/><g fill="#5a2b41"><path d="m115 89.125a1.749 1.749 0 0 0 -1.75 1.75v.792a1.75 1.75 0 0 0 3.5 0v-.792a1.749 1.749 0 0 0 -1.75-1.75z"/><path d="m116.064 51.707a.357.357 0 0 0 -.042-.051l-8.517-6.129v-6.994a1.75 1.75 0 0 0 -1.75-1.75l-67.127.009 5.972-4.3a1.751 1.751 0 0 0 -2.045-2.842l-9.922 7.141h-10.394a1.751 1.751 0 0 0 -1.75 1.75v6.989l-8.512 6.126c-.016.011-.026.035-.04.049a1.739 1.739 0 0 0 -.688 1.372v58.548a1.749 1.749 0 0 0 1.75 1.75h102.001a1.749 1.749 0 0 0 1.75-1.75v-13.458a1.75 1.75 0 0 0 -3.5 0v11.708h-95.564l31.942-27.715a1.75 1.75 0 1 0 -2.293-2.644l-32.585 28.273v-51.689l48.379 27.769a1.743 1.743 0 0 0 1.742 0l9.311-5.344 31.308 27.165a1.75 1.75 0 1 0 2.293-2.644l-30.383-26.366 35.85-20.58v27.713a1.75 1.75 0 0 0 3.5 0v-30.736a1.738 1.738 0 0 0 -.686-1.37zm-4.291 1.2-4.267 2.449v-5.52zm-78.573-12.614 70.8-.01v17.087l-4.942 2.836v-7.836a1.75 1.75 0 0 0 -1.75-1.75 3.641 3.641 0 0 1 -3.642-3.642 1.75 1.75 0 0 0 -1.75-1.75l-55.844.007a1.751 1.751 0 0 0 -1.75 1.751 3.648 3.648 0 0 1 -3.643 3.644 1.75 1.75 0 0 0 0 3.5 7.156 7.156 0 0 0 6.927-5.4h16.312a16.3 16.3 0 0 0 .634 26.181l-30.56-17.542v-17.075zm40.242 34.621a16.3 16.3 0 0 0 .63-26.184h16.313a7.168 7.168 0 0 0 5.179 5.178v8.309zm-9.442-26.181a12.853 12.853 0 1 1 -12.853 12.854 12.868 12.868 0 0 1 12.853-12.854zm-43.508 6.627-4.265-2.448 4.264-3.069zm43.508 24.974-6.7-3.848a16.192 16.192 0 0 0 13.408 0z"/><path d="m55.709 24.5 8.291-5.969 20.551 14.79a1.751 1.751 0 0 0 2.049-2.842l-21.578-15.525a1.754 1.754 0 0 0 -2.044 0l-9.314 6.7a1.751 1.751 0 0 0 2.045 2.846z"/><path d="m48.6 29.209a1.742 1.742 0 0 0 1.021-.33l.8-.575a1.75 1.75 0 0 0 -2.047-2.84l-.8.575a1.75 1.75 0 0 0 1.026 3.17z"/></g></svg>