<?xml version="1.0" encoding="iso-8859-1"?>
<!-- Generator: Adobe Illustrator 19.0.0, SVG Export Plug-In . SVG Version: 6.00 Build 0)  -->
<svg version="1.1" id="Layer_1" xmlns="http://www.w3.org/2000/svg" xmlns:xlink="http://www.w3.org/1999/xlink" x="0px" y="0px"
	 viewBox="0 0 503.607 503.607" style="enable-background:new 0 0 503.607 503.607;" xml:space="preserve">
<g transform="translate(1 1)">
	<g>
		<path style="fill:#FFDD09;" d="M427.066,116.508h33.574V24.18c0-9.233-7.554-16.787-16.787-16.787
			c-9.233,0-16.787,7.554-16.787,16.787V116.508z"/>
		<path style="fill:#FFDD09;" d="M309.557,418.672L309.557,418.672c0,18.466,15.108,33.574,33.574,33.574h33.574
			c18.466,0,33.574-15.108,33.574-33.574v-21.823c0-40.289,15.108-78.898,41.967-108.275l0,0
			c26.859-29.377,41.967-67.987,41.967-108.275v-63.79h-268.59v63.79c0,40.289,15.108,78.898,41.967,108.275
			s41.967,68.826,41.967,108.275V418.672z"/>
	</g>
	<path style="fill:#FD9808;" d="M469.033,116.508v63.79c0,40.289-15.108,78.898-41.967,108.275l0,0
		c-26.859,29.377-41.967,67.987-41.967,108.275v21.823c0,18.466-15.108,33.574-33.574,33.574h25.18
		c18.466,0,33.574-15.108,33.574-33.574v-21.823c0-40.289,15.108-78.898,41.967-108.275l0,0
		c26.859-29.377,41.967-67.987,41.967-108.275v-63.79H469.033z"/>
	<path style="fill:#FFDD09;" d="M292.77,116.508h-33.574V24.18c0-9.233,7.554-16.787,16.787-16.787s16.787,7.554,16.787,16.787
		V116.508z"/>
	<path style="fill:#FCC309;" d="M267.59,288.574c-24.341-26.859-38.61-60.433-41.128-96.525H49.361
		c-23.502,0-41.967,18.466-41.967,41.967v218.229c0,23.502,18.466,41.967,41.967,41.967H267.59
		c23.502,0,41.967-18.466,41.967-41.967v-33.574v-21.823C309.557,357.4,294.449,317.951,267.59,288.574"/>
	<path style="fill:#FFDD09;" d="M267.59,288.574c-16.787-18.466-28.538-39.449-35.252-62.951H61.951
		c-11.751,0-20.984,9.233-20.984,20.984v193.049c0,11.751,9.233,20.984,20.984,20.984H255c11.751,0,20.984-9.233,20.984-20.984
		v-141.01C273.466,295.289,270.948,291.931,267.59,288.574"/>
	<path style="fill:#FFFFFF;" d="M49.361,192.049h16.787c-23.502,0-41.967,18.466-41.967,41.967v218.229
		c0,23.502,18.466,41.967,41.967,41.967H49.361c-23.502,0-41.967-18.466-41.967-41.967V234.016
		C7.393,210.515,26.698,192.049,49.361,192.049"/>
	<path style="fill:#FCC309;" d="M234.016,343.131c0-41.967-33.574-75.541-75.541-75.541s-75.541,33.574-75.541,75.541
		s33.574,75.541,75.541,75.541S234.016,385.098,234.016,343.131"/>
	<path style="fill:#FD9808;" d="M158.475,267.59c-4.197,0-8.393,0.839-12.59,0.839c36.092,5.875,62.951,36.931,62.951,74.702
		s-26.859,67.987-62.951,74.702c4.197,0.839,8.393,0.839,12.59,0.839c41.967,0,75.541-33.574,75.541-75.541
		S200.443,267.59,158.475,267.59"/>
	<path d="M158.475,427.066c-46.164,0-83.934-37.77-83.934-83.934s37.77-83.934,83.934-83.934s83.934,37.77,83.934,83.934
		S204.639,427.066,158.475,427.066z M158.475,275.984c-36.931,0-67.148,30.216-67.148,67.148s30.216,67.148,67.148,67.148
		s67.148-30.216,67.148-67.148S195.407,275.984,158.475,275.984z"/>
	<path d="M150.082,343.131c0-9.233-7.554-16.787-16.787-16.787s-16.787,7.554-16.787,16.787c0,9.233,7.554,16.787,16.787,16.787
		S150.082,352.364,150.082,343.131"/>
	<path d="M200.443,343.131c0-9.233-7.554-16.787-16.787-16.787s-16.787,7.554-16.787,16.787c0,9.233,7.554,16.787,16.787,16.787
		S200.443,352.364,200.443,343.131"/>
	<path d="M158.475,292.77c-5.036,0-8.393-3.357-8.393-8.393V267.59c0-5.036,3.357-8.393,8.393-8.393s8.393,3.357,8.393,8.393v16.787
		C166.869,289.413,163.511,292.77,158.475,292.77z"/>
	<path d="M158.475,427.066c-5.036,0-8.393-3.357-8.393-8.393v-16.787c0-5.036,3.357-8.393,8.393-8.393s8.393,3.357,8.393,8.393
		v16.787C166.869,423.708,163.511,427.066,158.475,427.066z"/>
	<path d="M292.77,124.902h-33.574c-5.036,0-8.393-3.357-8.393-8.393V24.18c0-14.269,10.911-25.18,25.18-25.18
		s25.18,10.911,25.18,25.18v92.328C301.164,121.544,297.807,124.902,292.77,124.902z M267.59,108.115h16.787V24.18
		c0-5.036-3.357-8.393-8.393-8.393c-5.036,0-8.393,3.357-8.393,8.393V108.115z"/>
	<path id="SVGCleanerId_0" d="M376.705,460.639h-33.574c-23.502,0-41.967-18.466-41.967-41.967v-21.823
		c0-37.771-14.269-74.702-39.449-103.239c-28.538-31.056-44.485-72.184-44.485-114.151v-62.951c0-5.036,3.357-8.393,8.393-8.393
		h268.59c5.036,0,8.393,3.357,8.393,8.393v63.79c0,41.967-15.948,83.095-44.485,114.151c-26.02,28.538-39.449,64.63-39.449,103.239
		v20.984C418.672,442.174,400.207,460.639,376.705,460.639z M234.016,124.902v55.397c0,37.77,14.269,74.702,39.449,103.239
		c28.538,31.056,44.485,72.184,44.485,114.151v20.984c0,14.269,10.911,25.18,25.18,25.18h33.574c14.269,0,25.18-10.911,25.18-25.18
		v-21.823c0-41.967,15.948-83.095,44.485-114.151c26.02-28.538,39.449-64.63,39.449-103.239v-54.557H234.016z"/>
	<path d="M359.918,502.607c-5.036,0-8.393-3.357-8.393-8.393v-41.967c0-5.036,3.357-8.393,8.393-8.393
		c5.036,0,8.393,3.357,8.393,8.393v41.967C368.311,499.249,364.954,502.607,359.918,502.607z"/>
	<path d="M460.639,124.902h-33.574c-5.036,0-8.393-3.357-8.393-8.393V24.18c0-14.269,10.911-25.18,25.18-25.18
		s25.18,10.911,25.18,25.18v92.328C469.033,121.544,465.675,124.902,460.639,124.902z M435.459,108.115h16.787V24.18
		c0-5.036-3.357-8.393-8.393-8.393c-5.036,0-8.393,3.357-8.393,8.393V108.115z"/>
	<path d="M418.672,200.443H301.164c-5.036,0-8.393-3.357-8.393-8.393c0-5.036,3.357-8.393,8.393-8.393h117.508
		c5.036,0,8.393,3.357,8.393,8.393C427.066,197.085,423.708,200.443,418.672,200.443z"/>
	<path d="M418.672,234.016H301.164c-5.036,0-8.393-3.357-8.393-8.393s3.357-8.393,8.393-8.393h117.508
		c5.036,0,8.393,3.357,8.393,8.393S423.708,234.016,418.672,234.016z"/>
	<g>
		<path id="SVGCleanerId_0_1_" d="M376.705,460.639h-33.574c-23.502,0-41.967-18.466-41.967-41.967v-21.823
			c0-37.771-14.269-74.702-39.449-103.239c-28.538-31.056-44.485-72.184-44.485-114.151v-62.951c0-5.036,3.357-8.393,8.393-8.393
			h268.59c5.036,0,8.393,3.357,8.393,8.393v63.79c0,41.967-15.948,83.095-44.485,114.151c-26.02,28.538-39.449,64.63-39.449,103.239
			v20.984C418.672,442.174,400.207,460.639,376.705,460.639z M234.016,124.902v55.397c0,37.77,14.269,74.702,39.449,103.239
			c28.538,31.056,44.485,72.184,44.485,114.151v20.984c0,14.269,10.911,25.18,25.18,25.18h33.574c14.269,0,25.18-10.911,25.18-25.18
			v-21.823c0-41.967,15.948-83.095,44.485-114.151c26.02-28.538,39.449-64.63,39.449-103.239v-54.557H234.016z"/>
	</g>
	<path d="M267.59,502.607H49.361C21.662,502.607-1,479.944-1,452.246V234.016c0-27.698,22.662-50.361,50.361-50.361h177.102
		c4.197,0,8.393,3.357,8.393,7.554c2.518,33.574,16.787,66.308,39.449,91.489l0,0c28.538,31.056,44.485,72.184,44.485,114.151
		v55.397C317.951,479.944,295.289,502.607,267.59,502.607z M49.361,200.443c-18.466,0-33.574,15.108-33.574,33.574v218.229
		c0,18.466,15.108,33.574,33.574,33.574H267.59c18.466,0,33.574-15.108,33.574-33.574v-55.397
		c0-37.771-14.269-74.702-39.449-103.239l0,0c-23.502-26.02-38.61-58.754-42.807-94.007H49.361V200.443z"/>
	<path d="M255,469.033H61.951c-15.948,0-29.377-13.43-29.377-29.377V246.607c0-15.948,13.43-29.377,29.377-29.377h170.387
		c3.357,0,6.715,2.518,8.393,5.875c6.715,21.823,18.466,42.807,33.574,59.593l0,0c3.357,3.357,5.875,6.715,9.233,10.911
		c0.839,1.679,1.679,3.357,1.679,5.036v141.01C284.377,455.603,270.948,469.033,255,469.033z M61.951,234.016
		c-6.715,0-12.59,5.875-12.59,12.59v193.049c0,6.715,5.875,12.59,12.59,12.59H255c6.715,0,12.59-5.875,12.59-12.59V302.003
		c-1.679-2.518-4.197-5.036-5.875-7.554c-15.948-17.626-27.698-37.77-35.252-60.433L61.951,234.016L61.951,234.016z"/>
</g>
<g>
</g>
<g>
</g>
<g>
</g>
<g>
</g>
<g>
</g>
<g>
</g>
<g>
</g>
<g>
</g>
<g>
</g>
<g>
</g>
<g>
</g>
<g>
</g>
<g>
</g>
<g>
</g>
<g>
</g>
</svg>
