<svg height="496pt" viewBox="0 0 496 496" width="496pt" xmlns="http://www.w3.org/2000/svg"><path d="m272 344h120v144h-144v-192zm0 0" fill="#d3a06c"/><path d="m248 488h-144v-144h120l24-48zm0 0" fill="#d3a06c"/><path d="m392 296 24 48h-144l-24-48zm0 0" fill="#dfb28b"/><path d="m248 296-24 48h-144l24-48zm0 0" fill="#dfb28b"/><path d="m376 152 16 32c-15.921875 10.640625-30.078125 23.601562-42 38.558594l-14 17.441406 3.039062-24.320312c1.601563-12.640626 5.761719-24.800782 12-35.601563 6.242188-10.796875 14.722657-20.398437 24.960938-28.078125zm0 0" fill="#fcd770"/><path d="m156.960938 215.679688 3.039062 24.320312-14-17.441406c-11.921875-14.957032-26.078125-27.917969-42-38.558594l16-32c10.238281 7.679688 18.71875 17.28125 24.960938 28.078125 6.238281 10.800781 10.398437 22.960937 12 35.601563zm0 0" fill="#fcd770"/><g fill="#ff826e"><path d="m456 130.320312-8 13.679688-1.199219 16-14.800781-3.761719-14.800781 3.761719-1.199219-16-8-13.679688 14.078125-6.082031 9.921875-12.238281 9.921875 12.238281zm0 0"/><path d="m296 60.640625-16 27.359375-2.320312 32-29.679688-7.519531-29.679688 7.519531-2.320312-32-16-27.359375 28.238281-12.160156 19.761719-24.480469 19.761719 24.480469zm0 0"/><path d="m88 130.320312-8 13.679688-1.199219 16-14.800781-3.761719-14.800781 3.761719-1.199219-16-8-13.679688 14.078125-6.082031 9.921875-12.238281 9.921875 12.238281zm0 0"/></g><path d="m396.945312 288h-297.890624l-32 64h28.945312v144h304v-144h28.945312zm-9.890624 16 16 32h-126.109376l-16-32zm-278.109376 0h126.109376l-16 32h-126.109376zm275.054688 176h-128v-56h-16v56h-128v-128h116.945312l11.054688-22.113281v70.113281h16v-70.113281l11.054688 22.113281h116.945312zm0 0"/><path d="m128 416h48v16h-48zm0 0"/><path d="m128 448h48v16h-48zm0 0"/><path d="m192 448h16v16h-16zm0 0"/><path d="m211.054688 130.113281 36.945312-9.417969 36.945312 9.410157 2.894532-39.671875 19.625-33.523438-34.710938-15.023437-24.753906-30.605469-24.761719 30.605469-34.710937 15.023437 19.625 33.523438zm22.152343-75.113281 14.792969-18.28125 14.792969 18.289062 21.742187 9.417969-12.375 21.140625-1.777344 24.328125-22.382812-5.703125-22.382812 5.695313-1.777344-24.328125-12.375-21.144532zm0 0"/><path d="m87.839844 146.441406 11.625-19.847656-20.59375-8.921875-14.871094-18.390625-14.871094 18.382812-20.59375 8.921876 11.625 19.847656 1.71875 23.671875 22.121094-5.625 22.128906 5.632812zm-15.679688-4.882812-.609375 8.328125-7.550781-1.917969-7.542969 1.917969-.617187-8.328125-4.375-7.480469 7.625-3.300781 4.910156-6.058594 4.902344 6.066406 7.625 3.304688zm0 0"/><path d="m455.839844 146.441406 11.625-19.847656-20.59375-8.921875-14.871094-18.390625-14.871094 18.382812-20.59375 8.921876 11.625 19.847656 1.71875 23.671875 22.121094-5.625 22.128906 5.632812zm-15.679688-4.882812-.609375 8.328125-7.550781-1.917969-7.542969 1.917969-.609375-8.328125-4.375-7.480469 7.625-3.300781 4.902344-6.058594 4.902344 6.066406 7.625 3.304688zm0 0"/><path d="m99.558594 190.65625c15.234375 10.160156 28.769531 22.558594 40.203125 36.863281l31.6875 39.59375-6.554688-52.417969c-3.421875-27.367187-18.039062-52.558593-40.101562-69.101562l-7.664063-5.746094-23.449218 46.886719zm23.058594-26c13.527343 12.800781 22.703124 29.839844 25.847656 48.273438-10.105469-11.867188-21.570313-22.441407-34.207032-31.554688zm0 0"/><path d="m331.105469 214.695312-6.554688 52.417969 31.6875-39.601562c11.441407-14.304688 24.96875-26.703125 40.203125-36.863281l5.871094-3.921876-23.449219-46.886718-7.664062 5.761718c-22.054688 16.542969-36.679688 41.726563-40.09375 69.09375zm50.636719-33.320312c-12.636719 9.113281-24.109376 19.679688-34.207032 31.554688 3.152344-18.433594 12.320313-35.472657 25.847656-48.273438zm0 0"/><path d="m280 272h16v-33.519531c0-38.425781 13.542969-75.832031 38.152344-105.359375l-12.296875-10.242188c-26.992188 32.394532-41.855469 73.449219-41.855469 115.601563zm0 0"/><path d="m336 96h16v16h-16zm0 0"/><path d="m360 64h16v16h-16zm0 0"/><path d="m200 272h16v-33.519531c0-42.160157-14.863281-83.207031-41.847656-115.601563l-12.296875 10.242188c24.601562 29.527344 38.144531 66.933594 38.144531 105.359375zm0 0"/><path d="m144 96h16v16h-16zm0 0"/><path d="m120 64h16v16h-16zm0 0"/><path d="m240 136h16v16h-16zm0 0"/><path d="m240 168h16v104h-16zm0 0"/><path d="m464 216h16v16h-16zm0 0"/><path d="m464 248h16v16h-16zm0 0"/><path d="m480 232h16v16h-16zm0 0"/><path d="m448 232h16v16h-16zm0 0"/><path d="m440 0h16v16h-16zm0 0"/><path d="m440 32h16v16h-16zm0 0"/><path d="m456 16h16v16h-16zm0 0"/><path d="m424 16h16v16h-16zm0 0"/><path d="m16 248h16v16h-16zm0 0"/><path d="m16 280h16v16h-16zm0 0"/><path d="m32 264h16v16h-16zm0 0"/><path d="m0 264h16v16h-16zm0 0"/><path d="m16 0h16v16h-16zm0 0"/><path d="m16 32h16v16h-16zm0 0"/><path d="m32 16h16v16h-16zm0 0"/><path d="m0 16h16v16h-16zm0 0"/></svg>